<svg width="1048" height="245" viewBox="0 0 1048 245" fill="none" xmlns="http://www.w3.org/2000/svg">
<g clip-path="url(#clip0_1838_161)">
<mask id="mask0_1838_161" style="mask-type:luminance" maskUnits="userSpaceOnUse" x="321" y="29" width="562" height="181">
<path d="M341.053 37.5747V146.332H382.156V162.923H321.105V37.5747H341.043H341.053ZM437.6 61.9286C453.871 61.9286 465.064 69.861 471.011 77.9823V63.5488H491.124V162.923H471.011V148.131C464.888 156.611 453.345 164.543 437.249 164.543C412.232 164.543 392.119 143.44 392.119 112.783C392.119 82.1274 412.232 61.9186 437.6 61.9186V61.9286ZM441.802 79.7815C426.934 79.7815 412.593 91.3222 412.593 112.783C412.593 134.245 426.934 146.69 441.802 146.69C456.67 146.69 471.011 134.603 471.011 113.141C471.011 91.6801 456.845 79.7715 441.802 79.7715V79.7815ZM585.75 107.376C585.75 89.1552 576.128 79.7815 561.611 79.7815C547.094 79.7815 537.296 89.1552 537.296 107.376V162.923H517.359V63.5488H537.296V74.9107C543.77 66.7894 554.436 61.9286 565.979 61.9286C588.539 61.9286 605.512 76.5409 605.512 104.314V162.933H585.75V107.386V107.376ZM669.877 61.9286C682.473 61.9286 695.761 68.0618 703.112 77.4356V29.4634H723.225V162.933H703.112V147.962C696.99 156.978 685.447 164.553 669.702 164.553C644.344 164.553 624.221 143.449 624.221 112.793C624.221 82.1373 644.334 61.9286 669.877 61.9286ZM673.904 79.7815C659.036 79.7815 644.695 91.3222 644.695 112.783C644.695 134.245 659.036 146.69 673.904 146.69C688.771 146.69 703.112 134.603 703.112 113.141C703.112 91.6801 688.947 79.7715 673.904 79.7715V79.7815ZM749.461 29.4634H769.398V162.933H749.461V29.4634ZM861.753 63.5488H882.392L823.273 209.642H802.633L822.22 161.302L784.266 63.5488H806.484L833.597 139.304L861.763 63.5488H861.753Z" fill="white"/>
</mask>
<g mask="url(#mask0_1838_161)">
<path d="M888.602 -5.96411H310.469V227.634H888.602V-5.96411Z" fill="url(#paint0_linear_1838_161)"/>
</g>
<path fill-rule="evenodd" clip-rule="evenodd" d="M79.4755 245.237C64.7963 245.285 50.2763 245.252 36.1475 245.023C1.77764 244.458 -9.82382 227.727 8.92173 194.795C45.8842 129.862 82.8502 64.9292 119.813 0C129.118 16.3514 138.428 32.699 147.734 49.0467C118.129 100.7 88.5206 152.357 58.9159 204.01C47.108 226.811 59.3649 238.13 79.4755 245.237Z" fill="url(#paint1_linear_1838_161)"/>
<path fill-rule="evenodd" clip-rule="evenodd" d="M210.47 159.338L222.868 181.231L259.001 245.041H224.555C207.016 245.041 198.405 239.917 190.689 223.078L184.823 210.282L176.082 191.213C188.187 167.076 198.22 157.558 210.466 159.334L210.47 159.338Z" fill="url(#paint2_linear_1838_161)"/>
<path fill-rule="evenodd" clip-rule="evenodd" d="M196.042 133.953C198.182 137.715 200.325 141.477 202.465 145.235L210.471 159.375C198.225 157.599 188.192 167.117 176.087 191.255C168.994 203.626 161.904 215.998 154.814 228.369C147.362 241.372 138.802 244.942 124.304 245.023C109.361 245.108 94.3373 245.237 79.477 245.285C59.3664 238.179 47.1095 226.859 58.9174 204.058H102.383C111.732 204.058 116.74 199.908 121.487 191.631C132.773 171.939 144.06 152.246 155.346 132.554C166.531 113.042 185.034 114.611 196.042 133.949V133.953Z" fill="url(#paint3_linear_1838_161)"/>
<path d="M1015.88 0C1016.58 5.68588 1017.03 11.1531 1017.94 16.5408C1019.59 26.2525 1023.55 30.4076 1032.93 32.1471C1038.21 33.1312 1043.58 33.5885 1048.29 34.1949C1043.61 34.8012 1038.28 35.2783 1033.02 36.2326C1023.65 37.9424 1019.73 41.9086 1018.01 51.5308C1017.01 57.0477 1016.59 62.6739 1015.99 67.5248C1015.42 62.7634 1014.97 57.2465 1014.02 51.8091C1012.31 41.9483 1008.34 37.9026 998.803 36.2028C993.675 35.2883 988.478 34.8111 983.75 34.1849C988.43 33.5785 993.548 32.9622 998.657 32.2366C1000.16 32.0179 1001.64 31.5408 1003.09 31.0835C1008.33 29.4434 1011.92 25.8747 1013.06 20.4274C1014.28 14.5825 1014.84 8.58846 1015.67 2.66401C1015.79 1.8489 1015.8 1.02386 1015.87 0H1015.88Z" fill="#FA4D00"/>
<path d="M1000.55 45.666C1000.95 51.1033 1003.68 53.6878 1008.77 54.0755C1003.9 54.662 1000.8 56.9085 1000.62 62.5248C1000.18 57.2465 997.476 54.5625 992.465 54.0854C997.554 53.6679 1000.24 51.0039 1000.56 45.656L1000.55 45.666Z" fill="#FA4D00"/>
<path d="M1026.6 15.6959C1026.11 13.1313 1024.75 11.7198 1022.27 11.3222C1024.58 10.7059 1026.26 9.57268 1026.58 6.72974C1027.05 9.43351 1028.46 10.9543 1031.13 11.2227C1028.62 11.7098 1027.11 13.1114 1026.61 15.6959H1026.6Z" fill="#FA4D00"/>
<path d="M1028.99 76.5408H1002.67V164.016H1028.99V76.5408Z" fill="#FA4D00"/>
<path d="M953.428 144.175H913.622L907.236 163.598H880.035L918.633 53.6082H948.719L987.316 163.598H959.814L953.428 144.175ZM933.52 83.2205L920.456 123.489H946.74L933.52 83.2205Z" fill="#FA4D00"/>
<path d="M1018.27 226.64H319.246V244.533H1018.27V226.64Z" fill="url(#paint4_linear_1838_161)"/>
</g>
<defs>
<linearGradient id="paint0_linear_1838_161" x1="310.469" y1="110.835" x2="888.602" y2="110.835" gradientUnits="userSpaceOnUse">
<stop stop-color="#808080"/>
<stop offset="0.35" stop-color="#333333"/>
<stop offset="0.42" stop-color="#282828"/>
<stop offset="0.52" stop-color="#0D0D0D"/>
<stop offset="0.57"/>
<stop offset="0.91" stop-color="#1A1A1A"/>
</linearGradient>
<linearGradient id="paint1_linear_1838_161" x1="-53.0975" y1="392.647" x2="186.07" y2="-15.5454" gradientUnits="userSpaceOnUse">
<stop stop-color="#F57F32"/>
<stop offset="0.35" stop-color="#FA4D00"/>
<stop offset="0.39" stop-color="#EF4900"/>
<stop offset="0.44" stop-color="#D44100"/>
<stop offset="0.51" stop-color="#A73300"/>
<stop offset="0.59" stop-color="#692000"/>
<stop offset="0.68" stop-color="#1B0800"/>
<stop offset="0.72"/>
<stop offset="1" stop-color="#1A1A1A"/>
</linearGradient>
<linearGradient id="paint2_linear_1838_161" x1="226.547" y1="267.041" x2="201.218" y2="134.651" gradientUnits="userSpaceOnUse">
<stop stop-color="#F57F32"/>
<stop offset="0.35" stop-color="#FA4D00"/>
<stop offset="0.39" stop-color="#EF4900"/>
<stop offset="0.44" stop-color="#D44100"/>
<stop offset="0.51" stop-color="#A73300"/>
<stop offset="0.59" stop-color="#692000"/>
<stop offset="0.68" stop-color="#1B0800"/>
<stop offset="0.72"/>
<stop offset="1" stop-color="#1A1A1A"/>
</linearGradient>
<linearGradient id="paint3_linear_1838_161" x1="248.639" y1="180.389" x2="33.265" y2="183.44" gradientUnits="userSpaceOnUse">
<stop stop-color="#F57F32"/>
<stop offset="0.35" stop-color="#FA4D00"/>
<stop offset="0.39" stop-color="#EF4900"/>
<stop offset="0.44" stop-color="#D44100"/>
<stop offset="0.51" stop-color="#A73300"/>
<stop offset="0.59" stop-color="#692000"/>
<stop offset="0.68" stop-color="#1B0800"/>
<stop offset="0.72"/>
<stop offset="1" stop-color="#1A1A1A"/>
</linearGradient>
<linearGradient id="paint4_linear_1838_161" x1="357.454" y1="341.223" x2="1023.32" y2="123.877" gradientUnits="userSpaceOnUse">
<stop stop-color="#808080"/>
<stop offset="0.35" stop-color="#333333"/>
<stop offset="0.42" stop-color="#282828"/>
<stop offset="0.52" stop-color="#0D0D0D"/>
<stop offset="0.57"/>
<stop offset="0.91" stop-color="#1A1A1A"/>
</linearGradient>
<clipPath id="clip0_1838_161">
<rect width="1048" height="245" fill="white"/>
</clipPath>
</defs>
</svg>
