<svg width="1048" height="245" viewBox="0 0 1048 245" fill="none" xmlns="http://www.w3.org/2000/svg">
<g clip-path="url(#clip0_1838_164)">
<path fill-rule="evenodd" clip-rule="evenodd" d="M79.4752 245.271C64.796 245.319 50.2761 245.286 36.1473 245.057C1.77763 244.492 -9.82378 227.758 8.92169 194.822C45.884 129.88 82.8499 64.9381 119.812 0C129.118 16.3536 138.427 32.7035 147.733 49.0535C118.128 100.714 88.5202 152.378 58.9156 204.038C47.1078 226.842 59.3646 238.163 79.4752 245.271Z" fill="url(#paint0_linear_1838_164)"/>
<path fill-rule="evenodd" clip-rule="evenodd" d="M210.47 159.349L222.868 181.245L259.001 245.064H224.555C207.015 245.064 198.405 239.939 190.689 223.098L184.823 210.3L176.082 191.229C188.187 167.088 198.22 157.569 210.466 159.345L210.47 159.349Z" fill="url(#paint1_linear_1838_164)"/>
<path fill-rule="evenodd" clip-rule="evenodd" d="M196.037 133.923C198.177 137.686 200.321 141.448 202.461 145.207L210.467 159.349C198.221 157.573 188.187 167.092 176.083 191.233C168.989 203.606 161.899 215.979 154.81 228.353C147.358 241.357 138.798 244.928 124.3 245.009C109.356 245.094 94.3332 245.223 79.473 245.271C59.3624 238.163 47.1056 226.842 58.9134 204.038H102.379C111.728 204.038 116.736 199.888 121.483 191.61C132.769 171.914 144.056 152.219 155.342 132.524C166.527 113.01 185.03 114.579 196.037 133.92V133.923Z" fill="url(#paint2_linear_1838_164)"/>
<mask id="mask0_1838_164" style="mask-type:luminance" maskUnits="userSpaceOnUse" x="320" y="30" width="563" height="178">
<path d="M340.442 38.8697V145.586H381.566V161.865H320.484V38.8697H340.432H340.442ZM437.039 62.7666C453.319 62.7666 464.517 70.5501 470.467 78.519V64.3564H490.591V161.865H470.467V147.352C464.342 155.672 452.793 163.455 436.688 163.455C411.658 163.455 391.535 142.748 391.535 112.667C391.535 82.5863 411.658 62.7568 437.039 62.7568V62.7666ZM441.243 80.2844C426.368 80.2844 412.019 91.6086 412.019 112.667C412.019 133.726 426.368 145.937 441.243 145.937C456.119 145.937 470.467 134.077 470.467 113.018C470.467 91.9597 456.294 80.2747 441.243 80.2747V80.2844ZM585.266 107.361C585.266 89.4823 575.639 80.2844 561.115 80.2844C546.59 80.2844 536.787 89.4823 536.787 107.361V161.865H516.84V64.3564H536.787V75.505C543.264 67.5362 553.935 62.7666 565.485 62.7666C588.056 62.7666 605.039 77.1047 605.039 104.357V161.875H585.266V107.371V107.361ZM669.437 62.7666C682.039 62.7666 695.335 68.7847 702.689 77.9825V30.9106H722.813V161.875H702.689V147.186C696.564 156.032 685.015 163.465 669.261 163.465C643.89 163.465 623.757 142.758 623.757 112.677C623.757 82.596 643.88 62.7666 669.437 62.7666ZM673.465 80.2844C658.59 80.2844 644.241 91.6086 644.241 112.667C644.241 133.726 658.59 145.937 673.465 145.937C688.341 145.937 702.689 134.077 702.689 113.018C702.689 91.9597 688.516 80.2747 673.465 80.2747V80.2844ZM749.062 30.9106H769.009V161.875H749.062V30.9106ZM861.412 64.3564H882.062L822.912 207.708H802.262L821.858 160.275L783.885 64.3564H806.115L833.242 138.69L861.422 64.3564H861.412Z" fill="white"/>
</mask>
<g mask="url(#mask0_1838_164)">
<path d="M887.799 -3.81299H309.766V225.489H887.799V-3.81299Z" fill="white"/>
</g>
<path d="M1015.61 2C1016.3 7.57918 1016.76 12.9438 1017.67 18.2304C1019.32 27.7598 1023.28 31.8369 1032.66 33.5438C1037.95 34.5095 1043.32 34.9581 1048.03 35.5531C1043.35 36.1481 1038.02 36.6163 1032.76 37.5526C1023.39 39.2303 1019.46 43.1221 1017.74 52.5638C1016.74 57.9771 1016.31 63.4978 1015.72 68.2576C1015.14 63.5855 1014.69 58.1722 1013.75 52.8368C1012.03 43.1611 1008.06 39.1913 998.522 37.5234C993.391 36.626 988.192 36.1579 983.461 35.5434C988.143 34.9484 993.264 34.3436 998.375 33.6316C999.878 33.417 1001.36 32.9489 1002.81 32.5002C1008.05 30.8908 1011.64 27.3892 1012.78 22.0441C1014.01 16.3088 1014.57 10.4273 1015.4 4.61401C1015.51 3.8142 1015.52 3.00464 1015.6 2H1015.61Z" fill="#FA4D00"/>
<path d="M1000.27 46.8088C1000.67 52.1442 1003.4 54.6802 1008.49 55.0606C1003.62 55.6361 1000.52 57.8404 1000.34 63.3513C999.899 58.172 997.197 55.5385 992.184 55.0703C997.275 54.6606 999.957 52.0466 1000.28 46.7991L1000.27 46.8088Z" fill="#FA4D00"/>
<path d="M1026.33 17.4012C1025.85 14.8847 1024.48 13.4997 1022 13.1095C1024.32 12.5048 1025.99 11.3929 1026.32 8.60327C1026.78 11.2563 1028.2 12.7486 1030.87 13.012C1028.35 13.4899 1026.85 14.8652 1026.34 17.4012H1026.33Z" fill="#FA4D00"/>
<path d="M1029.21 76.9482H1002.61V162.928H1029.21V76.9482Z" fill="#FA4D00"/>
<path d="M953.13 143.469H913.303L906.914 162.528H879.699L918.317 54.6023H948.419L987.036 162.528H959.519L953.13 143.469ZM933.212 83.6589L920.141 123.172H946.439L933.212 83.6589Z" fill="#FA4D00"/>
<path d="M1018.38 224.338H319V241.612H1018.38V224.338Z" fill="white"/>
</g>
<defs>
<linearGradient id="paint0_linear_1838_164" x1="-53.0973" y1="392.701" x2="186.119" y2="-15.518" gradientUnits="userSpaceOnUse">
<stop stop-color="#F57F32"/>
<stop offset="0.35" stop-color="#FA4D00"/>
<stop offset="0.39" stop-color="#FA540A"/>
<stop offset="0.44" stop-color="#FA6725"/>
<stop offset="0.51" stop-color="#FB8652"/>
<stop offset="0.59" stop-color="#FCB190"/>
<stop offset="0.68" stop-color="#FEE8DE"/>
<stop offset="0.72" stop-color="white"/>
<stop offset="1" stop-color="white"/>
</linearGradient>
<linearGradient id="paint1_linear_1838_164" x1="226.547" y1="267.071" x2="201.211" y2="134.66" gradientUnits="userSpaceOnUse">
<stop stop-color="#F57F32"/>
<stop offset="0.35" stop-color="#FA4D00"/>
<stop offset="0.39" stop-color="#FA540A"/>
<stop offset="0.44" stop-color="#FA6725"/>
<stop offset="0.51" stop-color="#FB8652"/>
<stop offset="0.59" stop-color="#FCB190"/>
<stop offset="0.68" stop-color="#FEE8DE"/>
<stop offset="0.72" stop-color="white"/>
<stop offset="1" stop-color="white"/>
</linearGradient>
<linearGradient id="paint2_linear_1838_164" x1="248.635" y1="180.363" x2="33.2612" y2="183.413" gradientUnits="userSpaceOnUse">
<stop stop-color="#F57F32"/>
<stop offset="0.35" stop-color="#FA4D00"/>
<stop offset="0.39" stop-color="#FA540A"/>
<stop offset="0.44" stop-color="#FA6725"/>
<stop offset="0.51" stop-color="#FB8652"/>
<stop offset="0.59" stop-color="#FCB190"/>
<stop offset="0.68" stop-color="#FEE8DE"/>
<stop offset="0.72" stop-color="white"/>
<stop offset="1" stop-color="white"/>
</linearGradient>
<clipPath id="clip0_1838_164">
<rect width="1048" height="245" fill="white"/>
</clipPath>
</defs>
</svg>
