<svg width="100" height="100" viewBox="0 0 100 100" fill="none" xmlns="http://www.w3.org/2000/svg">
<rect width="100" height="100" fill="#F9F9F9"/>
<path d="M58.4209 64.5226L52.3392 58.492C49.4046 55.5815 47.9372 54.1264 46.2535 53.5945C44.7726 53.1267 43.1808 53.1438 41.7103 53.6437C40.0383 54.2121 38.6028 55.6985 35.7318 58.6714L21.1607 73.0634M58.4209 64.5226L59.6656 63.2885C62.6038 60.3747 64.0727 58.9178 65.7586 58.3859C67.241 57.9181 68.8339 57.9367 70.3053 58.4384C71.9781 59.0086 73.4134 60.499 76.2838 63.4795L79.334 66.5494M58.4209 64.5226L73.0449 79.1754M21.1607 73.0634C21.2739 73.9822 21.4665 74.7085 21.7948 75.3527C22.4938 76.7246 23.6093 77.8403 24.9814 78.5392C26.5411 79.334 28.583 79.334 32.6668 79.334H67.6672C70.0527 79.334 71.7418 79.334 73.0449 79.1754M21.1607 73.0634C21 71.7582 21 70.0643 21 67.6672V32.6668C21 28.5831 21 26.5411 21.7948 24.9814C22.4938 23.6093 23.6093 22.4938 24.9814 21.7948C26.5411 21 28.583 21 32.6668 21H67.6672C71.7509 21 73.793 21 75.3527 21.7948C76.7246 22.4938 77.8403 23.6093 78.5392 24.9814C79.334 26.5411 79.334 28.5831 79.334 32.6668V66.5494M79.334 66.5494V67.6672C79.334 71.7509 79.334 73.793 78.5392 75.3527C77.8403 76.7246 76.7246 77.8403 75.3527 78.5392C74.7041 78.8699 73.972 79.0627 73.0449 79.1754M68.3964 39.229C68.3964 43.2562 65.1318 46.5208 61.1046 46.5208C57.0774 46.5208 53.8129 43.2562 53.8129 39.229C53.8129 35.2018 57.0774 31.9372 61.1046 31.9372C65.1318 31.9372 68.3964 35.2018 68.3964 39.229Z" stroke="#B5B4B4" stroke-width="4.37505" stroke-linecap="round" stroke-linejoin="round"/>
</svg>
