<svg width="100" height="100" viewBox="0 0 100 100" fill="none" xmlns="http://www.w3.org/2000/svg">
<rect width="100" height="100" fill="#F9F9F9"/>
<path d="M61.4582 70.175L52.7701 61.5598C48.5779 57.4019 46.4816 55.3233 44.0763 54.5634C41.9607 53.8951 39.6867 53.9196 37.5861 54.6337C35.1975 55.4457 33.1468 57.5691 29.0454 61.816L8.22964 82.3761M61.4582 70.175L63.2364 68.4119C67.4338 64.2494 69.5323 62.1681 71.9406 61.4082C74.0583 60.74 76.3339 60.7666 78.436 61.4832C80.8256 62.2978 82.8761 64.427 86.9767 68.6848L91.334 73.0703M61.4582 70.175L82.3495 91.1074M8.22964 82.3761C8.39125 83.6886 8.66646 84.7261 9.13537 85.6464C10.134 87.6064 11.7276 89.2001 13.6876 90.1986C15.9159 91.334 18.8328 91.334 24.6668 91.334H74.6672C78.075 91.334 80.4881 91.334 82.3495 91.1074M8.22964 82.3761C8 80.5115 8 78.0917 8 74.6672V24.6668C8 18.8329 8 15.9159 9.13537 13.6876C10.134 11.7276 11.7276 10.134 13.6876 9.13537C15.9159 8 18.8328 8 24.6668 8H74.6672C80.5011 8 83.4183 8 85.6464 9.13537C87.6064 10.134 89.2001 11.7276 90.1986 13.6876C91.334 15.9159 91.334 18.8329 91.334 24.6668V73.0703M91.334 73.0703V74.6672C91.334 80.5011 91.334 83.4183 90.1986 85.6464C89.2001 87.6064 87.6064 89.2001 85.6464 90.1986C84.7199 90.671 83.674 90.9465 82.3495 91.1074M75.7089 34.0413C75.7089 39.7945 71.0453 44.4581 65.2921 44.4581C59.5389 44.4581 54.8754 39.7945 54.8754 34.0413C54.8754 28.2883 59.5389 23.6245 65.2921 23.6245C71.0453 23.6245 75.7089 28.2883 75.7089 34.0413Z" stroke="#B5B4B4" stroke-width="6.25005" stroke-linecap="round" stroke-linejoin="round"/>
</svg>
