<svg width="20" height="20" viewBox="0 0 20 20" fill="none" xmlns="http://www.w3.org/2000/svg">
<g clip-path="url(#clip0_1788_4)">
<path d="M14.4806 0H5.51916C2.4759 0 0 2.47601 0 5.51928V14.4807C0 17.5241 2.4759 20 5.51916 20H14.4806C17.5241 20 20 17.524 20 14.4807V5.51928C20.0001 2.47601 17.5241 0 14.4806 0ZM18.2256 14.4807C18.2256 16.5456 16.5456 18.2255 14.4807 18.2255H5.51916C3.45435 18.2256 1.7745 16.5456 1.7745 14.4807V5.51928C1.7745 3.45447 3.45435 1.7745 5.51916 1.7745H14.4806C16.5455 1.7745 18.2255 3.45447 18.2255 5.51928V14.4807H18.2256Z" fill="white"/>
<path d="M9.9992 4.84668C7.15752 4.84668 4.8457 7.15849 4.8457 10.0002C4.8457 12.8417 7.15752 15.1534 9.9992 15.1534C12.8409 15.1534 15.1527 12.8417 15.1527 10.0002C15.1527 7.15849 12.8409 4.84668 9.9992 4.84668ZM9.9992 13.3788C8.13609 13.3788 6.6202 11.8632 6.6202 10.0001C6.6202 8.13683 8.13598 6.62106 9.9992 6.62106C11.8624 6.62106 13.3782 8.13683 13.3782 10.0001C13.3782 11.8632 11.8623 13.3788 9.9992 13.3788Z" fill="white"/>
<path d="M15.3697 3.3421C15.0278 3.3421 14.6919 3.48051 14.4505 3.72303C14.2078 3.96436 14.0684 4.30033 14.0684 4.6434C14.0684 4.9854 14.208 5.32126 14.4505 5.56377C14.6918 5.8051 15.0278 5.9447 15.3697 5.9447C15.7127 5.9447 16.0475 5.8051 16.29 5.56377C16.5325 5.32126 16.671 4.98529 16.671 4.6434C16.671 4.30033 16.5325 3.96436 16.29 3.72303C16.0487 3.48051 15.7127 3.3421 15.3697 3.3421Z" fill="white"/>
</g>
<defs>
<clipPath id="clip0_1788_4">
<rect width="20" height="20" fill="white"/>
</clipPath>
</defs>
</svg>
