<svg width="815" height="815" viewBox="0 0 815 815" fill="none" xmlns="http://www.w3.org/2000/svg">
<path d="M339.542 610.375H475.376M244.46 101H570.459C608.496 101 627.516 101 642.043 108.403C654.822 114.914 665.213 125.304 671.723 138.083C679.125 152.611 679.126 171.63 679.126 209.667V399.833C679.126 437.87 679.125 456.89 671.723 471.417C665.213 484.196 654.822 494.587 642.043 501.097C627.516 508.5 608.496 508.5 570.459 508.5H244.46C206.423 508.5 187.404 508.5 172.876 501.097C160.097 494.587 149.707 484.196 143.195 471.417C135.793 456.89 135.793 437.87 135.793 399.833V209.667C135.793 171.63 135.793 152.611 143.195 138.083C149.707 125.304 160.097 114.914 172.876 108.403C187.404 101 206.423 101 244.46 101ZM155.79 712.25H659.131C688.24 712.25 702.794 712.25 711.559 706.12C719.213 700.765 724.327 692.496 725.693 683.256C727.255 672.672 720.745 659.655 707.729 633.619L690.22 598.605C673.865 565.896 665.688 549.542 653.49 537.592C642.702 527.028 629.699 518.993 615.423 514.069C599.283 508.5 580.996 508.5 544.43 508.5H270.491C233.922 508.5 215.638 508.5 199.495 514.069C185.22 518.993 172.218 527.028 161.43 537.592C149.231 549.542 141.053 565.896 124.699 598.605L107.192 633.619C94.1742 659.655 87.6651 672.672 89.2285 683.256C90.5937 692.496 95.7051 700.765 103.359 706.12C112.125 712.25 126.68 712.25 155.79 712.25Z" stroke="black" stroke-width="38" stroke-linecap="round" stroke-linejoin="round"/>
</svg>
