<svg width="815" height="815" viewBox="0 0 815 815" fill="none" xmlns="http://www.w3.org/2000/svg">
<path d="M311.667 712.25H501.833C539.87 712.25 558.89 712.25 573.418 704.847C586.196 698.337 596.587 687.946 603.097 675.167C610.5 660.64 610.5 641.62 610.5 603.583V209.667C610.5 171.63 610.5 152.611 603.097 138.083C596.587 125.304 586.196 114.914 573.418 108.403C558.89 101 539.87 101 501.833 101H311.667C273.63 101 254.611 101 240.083 108.403C227.304 114.914 216.914 125.304 210.403 138.083C203 152.611 203 171.63 203 209.667V603.583C203 641.62 203 660.64 210.403 675.167C216.914 687.946 227.304 698.337 240.083 704.847C254.611 712.25 273.63 712.25 311.667 712.25Z" stroke="black" stroke-width="38" stroke-linecap="round" stroke-linejoin="round"/>
<circle cx="406.75" cy="640.625" r="34.5" fill="black"/>
</svg>
